<svg xmlns="http://www.w3.org/2000/svg" viewBox="0 0 32 32"><title>26-User-Arrow Right</title><g id="_26-User-Arrow_Right" data-name="26-User-Arrow Right"><path d="M10,10V8A6,6,0,0,1,22,8v2a1,1,0,0,0,1,1v2h2V11a2,2,0,0,0-1-1.73V8A8,8,0,0,0,8,8V9.27A2,2,0,0,0,7,11v2a2,2,0,0,0,1,1.75,8.07,8.07,0,0,0,4,6.16v1.39L4.7,25c-.91.23-4.7,1.37-4.7,4v2a1,1,0,0,0,1,1H15V30H2V29c0-.78,1.92-1.7,3.24-2l.11,0,8-3A1,1,0,0,0,14,23V20.31a1,1,0,0,0-.57-.9A6,6,0,0,1,10,14a1,1,0,0,0-1-1V11A1,1,0,0,0,10,10Z"/><path d="M31.71,21.29l-3-3-1.41,1.41L28.59,21H20a2,2,0,0,0-2,2v4h2V23h8.59l-1.29,1.29,1.41,1.41,3-3A1,1,0,0,0,31.71,21.29Z"/></g></svg>