<svg xmlns="http://www.w3.org/2000/svg" xmlns:xlink="http://www.w3.org/1999/xlink" viewBox="0 0 246 50" preserveAspectRatio="xMidYMid" style="display: block; shape-rendering: auto; background: transparent;" width="246" height="50"><style type="text/css">
  .ld-text text {
    text-anchor: middle;
    dominant-baseline: middle;
    font-size: 24px;
    opacity: 0;
    user-select: none;
    pointer-events: none;
  }
</style>
<g style="transform-origin:123px 25px;transform:scale(1)" class="ld-text">
<g transform="translate(123,25)">
  <g transform="scale(0.3000) translate(0,0)"><g class="path" style="opacity: 1; animation: 0.4s linear -0.2475s infinite normal forwards running animate-kgja8pvnhg; transform-box: view-box; transform-origin: -280.83px -6.46px;"><path d="M37.11 28.45L37.11 30.13Q37.11 32.98 35.96 35.48Q34.80 37.98 32.87 39.86Q30.94 41.73 28.38 42.81Q25.82 43.88 22.97 43.88L22.97 43.88L18.95 43.88Q16.09 43.88 13.54 42.81Q10.98 41.73 9.04 39.86Q7.11 37.98 5.96 35.48Q4.80 32.98 4.80 30.13L4.80 30.13L4.80 27.90L9.84 27.08L9.84 30.13Q9.84 32.01 10.61 33.63Q11.37 35.25 12.66 36.48Q13.95 37.71 15.64 38.41Q17.34 39.12 19.22 39.12L19.22 39.12L22.73 39.12Q24.61 39.12 26.29 38.41Q27.97 37.71 29.26 36.48Q30.55 35.25 31.31 33.63Q32.07 32.01 32.07 30.13L32.07 30.13L32.07 28.45Q32.07 25.56 30.94 23.65Q29.80 21.73 27.93 20.39Q26.05 19.04 23.69 18.10Q21.33 17.16 18.83 16.22Q16.33 15.29 13.96 14.15Q11.60 13.02 9.73 11.32Q7.85 9.62 6.72 7.16Q5.59 4.70 5.59 1.11L5.59 1.11L5.59 0.05Q5.59-2.80 6.66-5.30Q7.73-7.80 9.61-9.67Q11.48-11.55 14-12.62Q16.52-13.70 19.38-13.70L19.38-13.70L22.97-13.70Q25.82-13.70 28.32-12.62Q30.82-11.55 32.70-9.67Q34.57-7.80 35.64-5.30Q36.72-2.80 36.72 0.05L36.72 0.05L36.72 1.50L31.68 2.32L31.68 0.05Q31.68-1.82 30.98-3.44Q30.27-5.06 29.06-6.28Q27.85-7.49 26.23-8.19Q24.61-8.89 22.73-8.89L22.73-8.89L19.61-8.89Q17.73-8.89 16.11-8.19Q14.49-7.49 13.26-6.28Q12.03-5.06 11.33-3.44Q10.63-1.82 10.63 0.05L10.63 0.05L10.63 1.11Q10.63 3.80 11.76 5.64Q12.89 7.47 14.77 8.78Q16.64 10.09 19 11.05Q21.37 12.01 23.87 13Q26.37 14 28.73 15.19Q31.09 16.38 32.97 18.12Q34.84 19.86 35.98 22.36Q37.11 24.86 37.11 28.45L37.11 28.45" style="fill: rgb(248, 241, 241);" transform="translate(-301.780,-21.551)"></path></g><g class="path" style="opacity: 1; animation: 0.4s linear -0.231s infinite normal forwards running animate-kgja8pvnhg; transform-box: view-box; transform-origin: -242.09px -6.46px;"><path d="M73.05 43.10L68.24 43.10L68.24 13.80Q68.24 12.36 67.70 11.09Q67.15 9.82 66.21 8.88Q65.27 7.94 64 7.40Q62.73 6.85 61.29 6.85L61.29 6.85L58.09 6.85Q56.64 6.85 55.37 7.40Q54.10 7.94 53.16 8.88Q52.23 9.82 51.68 11.09Q51.13 12.36 51.13 13.80L51.13 13.80L51.13 43.10L46.33 43.10L46.33-12.92L51.13-12.92L51.13 6.46Q52.77 4.51 55.08 3.41Q57.38 2.32 60.08 2.32L60.08 2.32L61.29 2.32Q63.71 2.32 65.86 3.24Q68.01 4.15 69.61 5.76Q71.21 7.36 72.13 9.51Q73.05 11.65 73.05 14.08L73.05 14.08L73.05 43.10" style="fill: rgb(248, 241, 241);" transform="translate(-301.780,-21.551)"></path></g><g class="path" style="opacity: 1; animation: 0.4s linear -0.2145s infinite normal forwards running animate-kgja8pvnhg; transform-box: view-box; transform-origin: -197.62px 1.55px;"><path d="M129.69 3.10L116.33 43.10L113.71 43.10L104.34 12.94L104.18 10.87L104.02 12.94L94.65 43.10L91.99 43.10L78.63 3.10L83.52 3.10L93.05 33.33L93.20 35.40L93.36 33.33L102.73 3.10L105.63 3.10L114.96 33.33L115.12 35.40L115.27 33.33L124.80 3.10L129.69 3.10" style="fill: rgb(248, 241, 241);" transform="translate(-301.780,-21.551)"></path></g><g class="path" style="opacity: 1; animation: 0.4s linear -0.198s infinite normal forwards running animate-kgja8pvnhg; transform-box: view-box; transform-origin: -153.11px 1.55px;"><path d="M162.03 32.12L162.03 32.12Q162.03 34.55 161.11 36.69Q160.20 38.84 158.59 40.44Q156.99 42.05 154.84 42.96Q152.70 43.88 150.27 43.88L150.27 43.88L147.07 43.88Q144.65 43.88 142.50 42.96Q140.35 42.05 138.75 40.44Q137.15 38.84 136.23 36.69Q135.31 34.55 135.31 32.12L135.31 32.12L135.31 14.08Q135.31 11.65 136.23 9.51Q137.15 7.36 138.75 5.76Q140.35 4.15 142.50 3.24Q144.65 2.32 147.07 2.32L147.07 2.32L150.27 2.32Q152.70 2.32 154.84 3.24Q156.99 4.15 158.59 5.76Q160.20 7.36 161.11 9.51Q162.03 11.65 162.03 14.08L162.03 14.08L162.03 23.49L140.12 23.49L140.12 32.40Q140.12 33.84 140.66 35.11Q141.21 36.38 142.15 37.32Q143.09 38.26 144.36 38.80Q145.63 39.35 147.07 39.35L147.07 39.35L150.27 39.35Q151.72 39.35 152.99 38.80Q154.26 38.26 155.20 37.32Q156.13 36.38 156.68 35.11Q157.23 33.84 157.23 32.40L157.23 32.40L157.23 29.74L162.03 30.52L162.03 32.12 zM157.23 19.74L157.23 13.80Q157.23 12.36 156.68 11.09Q156.13 9.82 155.20 8.88Q154.26 7.94 152.99 7.40Q151.72 6.85 150.27 6.85L150.27 6.85L147.07 6.85Q145.63 6.85 144.36 7.40Q143.09 7.94 142.15 8.88Q141.21 9.82 140.66 11.09Q140.12 12.36 140.12 13.80L140.12 13.80L140.12 19.74L157.23 19.74" style="fill: rgb(248, 241, 241);" transform="translate(-301.780,-21.551)"></path></g><g class="path" style="opacity: 1; animation: 0.4s linear -0.1815s infinite normal forwards running animate-kgja8pvnhg; transform-box: view-box; transform-origin: -116.78px 1.55px;"><path d="M198.36 32.12L198.36 32.12Q198.36 34.55 197.44 36.69Q196.52 38.84 194.92 40.44Q193.32 42.05 191.17 42.96Q189.02 43.88 186.60 43.88L186.60 43.88L183.40 43.88Q180.98 43.88 178.83 42.96Q176.68 42.05 175.08 40.44Q173.48 38.84 172.56 36.69Q171.64 34.55 171.64 32.12L171.64 32.12L171.64 14.08Q171.64 11.65 172.56 9.51Q173.48 7.36 175.08 5.76Q176.68 4.15 178.83 3.24Q180.98 2.32 183.40 2.32L183.40 2.32L186.60 2.32Q189.02 2.32 191.17 3.24Q193.32 4.15 194.92 5.76Q196.52 7.36 197.44 9.51Q198.36 11.65 198.36 14.08L198.36 14.08L198.36 23.49L176.45 23.49L176.45 32.40Q176.45 33.84 176.99 35.11Q177.54 36.38 178.48 37.32Q179.41 38.26 180.68 38.80Q181.95 39.35 183.40 39.35L183.40 39.35L186.60 39.35Q188.05 39.35 189.32 38.80Q190.59 38.26 191.52 37.32Q192.46 36.38 193.01 35.11Q193.55 33.84 193.55 32.40L193.55 32.40L193.55 29.74L198.36 30.52L198.36 32.12 zM193.55 19.74L193.55 13.80Q193.55 12.36 193.01 11.09Q192.46 9.82 191.52 8.88Q190.59 7.94 189.32 7.40Q188.05 6.85 186.60 6.85L186.60 6.85L183.40 6.85Q181.95 6.85 180.68 7.40Q179.41 7.94 178.48 8.88Q177.54 9.82 176.99 11.09Q176.45 12.36 176.45 13.80L176.45 13.80L176.45 19.74L193.55 19.74" style="fill: rgb(248, 241, 241);" transform="translate(-301.780,-21.551)"></path></g><g class="path" style="opacity: 1; animation: 0.4s linear -0.165s infinite normal forwards running animate-kgja8pvnhg; transform-box: view-box; transform-origin: -77.66px -6.46px;"><path d="M240.27 28.45L240.27 30.13Q240.27 32.98 239.12 35.48Q237.97 37.98 236.04 39.86Q234.10 41.73 231.54 42.81Q228.98 43.88 226.13 43.88L226.13 43.88L222.11 43.88Q219.26 43.88 216.70 42.81Q214.14 41.73 212.21 39.86Q210.27 37.98 209.12 35.48Q207.97 32.98 207.97 30.13L207.97 30.13L207.97 27.90L213.01 27.08L213.01 30.13Q213.01 32.01 213.77 33.63Q214.53 35.25 215.82 36.48Q217.11 37.71 218.81 38.41Q220.51 39.12 222.38 39.12L222.38 39.12L225.90 39.12Q227.77 39.12 229.45 38.41Q231.13 37.71 232.42 36.48Q233.71 35.25 234.47 33.63Q235.23 32.01 235.23 30.13L235.23 30.13L235.23 28.45Q235.23 25.56 234.10 23.65Q232.97 21.73 231.09 20.39Q229.22 19.04 226.86 18.10Q224.49 17.16 221.99 16.22Q219.49 15.29 217.13 14.15Q214.77 13.02 212.89 11.32Q211.02 9.62 209.88 7.16Q208.75 4.70 208.75 1.11L208.75 1.11L208.75 0.05Q208.75-2.80 209.82-5.30Q210.90-7.80 212.77-9.67Q214.65-11.55 217.17-12.62Q219.69-13.70 222.54-13.70L222.54-13.70L226.13-13.70Q228.98-13.70 231.48-12.62Q233.98-11.55 235.86-9.67Q237.73-7.80 238.81-5.30Q239.88-2.80 239.88 0.05L239.88 0.05L239.88 1.50L234.84 2.32L234.84 0.05Q234.84-1.82 234.14-3.44Q233.44-5.06 232.23-6.28Q231.02-7.49 229.39-8.19Q227.77-8.89 225.90-8.89L225.90-8.89L222.77-8.89Q220.90-8.89 219.28-8.19Q217.66-7.49 216.43-6.28Q215.20-5.06 214.49-3.44Q213.79-1.82 213.79 0.05L213.79 0.05L213.79 1.11Q213.79 3.80 214.92 5.64Q216.05 7.47 217.93 8.78Q219.80 10.09 222.17 11.05Q224.53 12.01 227.03 13Q229.53 14 231.89 15.19Q234.26 16.38 236.13 18.12Q238.01 19.86 239.14 22.36Q240.27 24.86 240.27 28.45L240.27 28.45" style="fill: rgb(248, 241, 241);" transform="translate(-301.780,-21.551)"></path></g><g class="path" style="opacity: 1; animation: 0.4s linear -0.1485s infinite normal forwards running animate-kgja8pvnhg; transform-box: view-box; transform-origin: -38.93px -6.46px;"><path d="M276.21 43.10L271.41 43.10L271.41 13.80Q271.41 12.36 270.86 11.09Q270.31 9.82 269.38 8.88Q268.44 7.94 267.17 7.40Q265.90 6.85 264.45 6.85L264.45 6.85L261.25 6.85Q259.80 6.85 258.54 7.40Q257.27 7.94 256.33 8.88Q255.39 9.82 254.84 11.09Q254.30 12.36 254.30 13.80L254.30 13.80L254.30 43.10L249.49 43.10L249.49-12.92L254.30-12.92L254.30 6.46Q255.94 4.51 258.24 3.41Q260.55 2.32 263.24 2.32L263.24 2.32L264.45 2.32Q266.88 2.32 269.02 3.24Q271.17 4.15 272.77 5.76Q274.38 7.36 275.29 9.51Q276.21 11.65 276.21 14.08L276.21 14.08L276.21 43.10" style="fill: rgb(248, 241, 241);" transform="translate(-301.780,-21.551)"></path></g><g class="path" style="opacity: 1; animation: 0.4s linear -0.132s infinite normal forwards running animate-kgja8pvnhg; transform-box: view-box; transform-origin: -2.6px 1.55px;"><path d="M312.54 43.10L310.94 43.10L308.28 39.12Q306.64 41.26 304.18 42.57Q301.72 43.88 298.79 43.88L298.79 43.88L297.58 43.88Q295.16 43.88 293.01 42.96Q290.86 42.05 289.26 40.44Q287.66 38.84 286.74 36.69Q285.82 34.55 285.82 32.12L285.82 32.12L285.82 31.73Q285.82 29.31 286.74 27.16Q287.66 25.01 289.26 23.41Q290.86 21.81 293.01 20.89Q295.16 19.97 297.58 19.97L297.58 19.97L307.73 19.97L307.73 13.80Q307.73 12.36 307.19 11.09Q306.64 9.82 305.70 8.88Q304.77 7.94 303.50 7.40Q302.23 6.85 300.78 6.85L300.78 6.85L297.97 6.85Q296.52 6.85 295.25 7.40Q293.98 7.94 293.05 8.88Q292.11 9.82 291.56 11.09Q291.02 12.36 291.02 13.80L291.02 13.80L291.02 15.25L286.21 14.47L286.21 14.08Q286.21 11.65 287.13 9.51Q288.05 7.36 289.65 5.76Q291.25 4.15 293.40 3.24Q295.55 2.32 297.97 2.32L297.97 2.32L300.78 2.32Q303.20 2.32 305.35 3.24Q307.50 4.15 309.10 5.76Q310.70 7.36 311.62 9.51Q312.54 11.65 312.54 14.08L312.54 14.08L312.54 43.10 zM307.73 32.40L307.73 23.72L297.58 23.72Q296.13 23.72 294.86 24.27Q293.59 24.82 292.66 25.78Q291.72 26.73 291.17 28Q290.63 29.27 290.63 30.72L290.63 30.72L290.63 32.40Q290.63 33.84 291.17 35.11Q291.72 36.38 292.66 37.32Q293.59 38.26 294.86 38.80Q296.13 39.35 297.58 39.35L297.58 39.35L300.78 39.35Q302.23 39.35 303.50 38.80Q304.77 38.26 305.70 37.32Q306.64 36.38 307.19 35.11Q307.73 33.84 307.73 32.40L307.73 32.40" style="fill: rgb(248, 241, 241);" transform="translate(-301.780,-21.551)"></path></g><g class="path" style="opacity: 1; animation: 0.4s linear -0.1155s infinite normal forwards running animate-kgja8pvnhg; transform-box: view-box; transform-origin: 33.73px 1.94px;"><path d="M348.87 43.10L347.27 43.10L344.61 39.04Q342.97 41.26 340.51 42.57Q338.05 43.88 335.12 43.88L335.12 43.88L333.91 43.88Q331.48 43.88 329.34 42.96Q327.19 42.05 325.59 40.44Q323.98 38.84 323.07 36.69Q322.15 34.55 322.15 32.12L322.15 32.12L322.15 3.10L326.95 3.10L326.95 32.40Q326.95 33.84 327.50 35.11Q328.05 36.38 328.98 37.32Q329.92 38.26 331.19 38.80Q332.46 39.35 333.91 39.35L333.91 39.35L337.11 39.35Q338.55 39.35 339.82 38.80Q341.09 38.26 342.03 37.32Q342.97 36.38 343.52 35.11Q344.06 33.84 344.06 32.40L344.06 32.40L344.06 3.10L348.87 3.10L348.87 43.10" style="fill: rgb(248, 241, 241);" transform="translate(-301.780,-21.551)"></path></g><g class="path" style="opacity: 1; animation: 0.4s linear -0.099s infinite normal forwards running animate-kgja8pvnhg; transform-box: view-box; transform-origin: 70.06px 1.16px;"><path d="M385.20 43.10L380.39 43.10L380.39 13.80Q380.39 12.36 379.84 11.09Q379.30 9.82 378.36 8.88Q377.42 7.94 376.15 7.40Q374.88 6.85 373.44 6.85L373.44 6.85L370.23 6.85Q368.79 6.85 367.52 7.40Q366.25 7.94 365.31 8.88Q364.38 9.82 363.83 11.09Q363.28 12.36 363.28 13.80L363.28 13.80L363.28 43.10L358.48 43.10L358.48 3.10L360.08 3.10L362.70 7.16Q364.34 4.94 366.82 3.63Q369.30 2.32 372.23 2.32L372.23 2.32L373.44 2.32Q375.86 2.32 378.01 3.24Q380.16 4.15 381.76 5.76Q383.36 7.36 384.28 9.51Q385.20 11.65 385.20 14.08L385.20 14.08L385.20 43.10" style="fill: rgb(248, 241, 241);" transform="translate(-301.780,-21.551)"></path></g><g class="path" style="opacity: 1; animation: 0.4s linear -0.0825s infinite normal forwards running animate-kgja8pvnhg; transform-box: view-box; transform-origin: 106.77px 9.17px;"><path d="M421.91 48.14L421.91 48.14Q421.91 50.56 421 52.59Q420.08 54.62 418.48 56.07Q416.88 57.51 414.73 58.31Q412.58 59.12 410.16 59.12L410.16 59.12L408.16 59.12Q405.74 59.12 403.59 58.31Q401.45 57.51 399.84 56.07Q398.24 54.62 397.32 52.59Q396.41 50.56 396.41 48.14L396.41 48.14L396.41 47.98Q396.41 45.64 397.27 43.69Q398.13 41.73 399.61 40.29L399.61 40.29Q397.73 39.15 396.62 37.22Q395.51 35.29 395.51 32.94L395.51 32.94Q395.51 30.83 396.41 29.02Q397.30 27.20 398.87 26.07L398.87 26.07Q396.99 24.43 395.90 22.12Q394.80 19.82 394.80 17.08L394.80 17.08L394.80 14.08Q394.80 11.65 395.72 9.51Q396.64 7.36 398.24 5.76Q399.84 4.15 401.99 3.24Q404.14 2.32 406.56 2.32L406.56 2.32L408.55 2.32Q411.48 2.32 413.96 3.63Q416.45 4.94 418.09 7.16L418.09 7.16L420.70 3.10L422.30 3.10L422.30 17.08Q422.30 19.51 421.39 21.65Q420.47 23.80 418.87 25.40Q417.27 27.01 415.12 27.92Q412.97 28.84 410.55 28.84L410.55 28.84L403.59 28.84Q402.77 28.84 402.03 29.17Q401.29 29.51 400.72 30.05Q400.16 30.60 399.84 31.36Q399.53 32.12 399.53 32.94L399.53 32.94Q399.53 33.76 399.84 34.51Q400.16 35.25 400.72 35.81Q401.29 36.38 402.03 36.69Q402.77 37.01 403.59 37.01L403.59 37.01L410.16 37.01Q412.58 37.01 414.73 37.81Q416.88 38.61 418.48 40.05Q420.08 41.50 421 43.53Q421.91 45.56 421.91 47.98L421.91 47.98L421.91 48.14 zM417.54 17.36L417.54 13.80Q417.54 12.36 416.99 11.09Q416.45 9.82 415.49 8.88Q414.53 7.94 413.26 7.40Q411.99 6.85 410.55 6.85L410.55 6.85L406.56 6.85Q405.12 6.85 403.85 7.40Q402.58 7.94 401.64 8.88Q400.70 9.82 400.16 11.09Q399.61 12.36 399.61 13.80L399.61 13.80L399.61 17.36Q399.61 18.80 400.16 20.07Q400.70 21.34 401.64 22.28Q402.58 23.22 403.85 23.76Q405.12 24.31 406.56 24.31L406.56 24.31L410.55 24.31Q411.99 24.31 413.26 23.76Q414.53 23.22 415.49 22.28Q416.45 21.34 416.99 20.07Q417.54 18.80 417.54 17.36L417.54 17.36 zM417.34 48.37L417.34 47.75Q417.34 46.30 416.80 45.15Q416.25 44 415.31 43.22Q414.38 42.44 413.11 42.01Q411.84 41.58 410.39 41.58L410.39 41.58L407.93 41.58Q406.48 41.58 405.21 42.01Q403.95 42.44 403.01 43.22Q402.07 44 401.52 45.15Q400.98 46.30 400.98 47.75L400.98 47.75L400.98 48.37Q400.98 49.82 401.52 50.95Q402.07 52.08 403.01 52.89Q403.95 53.69 405.21 54.12Q406.48 54.55 407.93 54.55L407.93 54.55L410.39 54.55Q411.84 54.55 413.11 54.12Q414.38 53.69 415.31 52.89Q416.25 52.08 416.80 50.95Q417.34 49.82 417.34 48.37L417.34 48.37" style="fill: rgb(248, 241, 241);" transform="translate(-301.780,-21.551)"></path></g><g class="path" style="opacity: 1; animation: 0.4s linear -0.066s infinite normal forwards running animate-kgja8pvnhg; transform-box: view-box; transform-origin: 145.51px -6.46px;"><path d="M463.44 28.45L463.44 30.13Q463.44 32.98 462.29 35.48Q461.13 37.98 459.20 39.86Q457.27 41.73 454.71 42.81Q452.15 43.88 449.30 43.88L449.30 43.88L445.27 43.88Q442.42 43.88 439.86 42.81Q437.30 41.73 435.37 39.86Q433.44 37.98 432.29 35.48Q431.13 32.98 431.13 30.13L431.13 30.13L431.13 27.90L436.17 27.08L436.17 30.13Q436.17 32.01 436.93 33.63Q437.70 35.25 438.98 36.48Q440.27 37.71 441.97 38.41Q443.67 39.12 445.55 39.12L445.55 39.12L449.06 39.12Q450.94 39.12 452.62 38.41Q454.30 37.71 455.59 36.48Q456.88 35.25 457.64 33.63Q458.40 32.01 458.40 30.13L458.40 30.13L458.40 28.45Q458.40 25.56 457.27 23.65Q456.13 21.73 454.26 20.39Q452.38 19.04 450.02 18.10Q447.66 17.16 445.16 16.22Q442.66 15.29 440.29 14.15Q437.93 13.02 436.05 11.32Q434.18 9.62 433.05 7.16Q431.91 4.70 431.91 1.11L431.91 1.11L431.91 0.05Q431.91-2.80 432.99-5.30Q434.06-7.80 435.94-9.67Q437.81-11.55 440.33-12.62Q442.85-13.70 445.70-13.70L445.70-13.70L449.30-13.70Q452.15-13.70 454.65-12.62Q457.15-11.55 459.02-9.67Q460.90-7.80 461.97-5.30Q463.05-2.80 463.05 0.05L463.05 0.05L463.05 1.50L458.01 2.32L458.01 0.05Q458.01-1.82 457.30-3.44Q456.60-5.06 455.39-6.28Q454.18-7.49 452.56-8.19Q450.94-8.89 449.06-8.89L449.06-8.89L445.94-8.89Q444.06-8.89 442.44-8.19Q440.82-7.49 439.59-6.28Q438.36-5.06 437.66-3.44Q436.95-1.82 436.95 0.05L436.95 0.05L436.95 1.11Q436.95 3.80 438.09 5.64Q439.22 7.47 441.09 8.78Q442.97 10.09 445.33 11.05Q447.70 12.01 450.20 13Q452.70 14 455.06 15.19Q457.42 16.38 459.30 18.12Q461.17 19.86 462.30 22.36Q463.44 24.86 463.44 28.45L463.44 28.45" style="fill: rgb(213, 50, 50);" transform="translate(-301.780,-21.551)"></path></g><g class="path" style="opacity: 1; animation: 0.4s linear -0.0495s infinite normal forwards running animate-kgja8pvnhg; transform-box: view-box; transform-origin: 184.24px 9.17px;"><path d="M499.38 32.12L499.38 32.12Q499.38 34.55 498.46 36.69Q497.54 38.84 495.94 40.44Q494.34 42.05 492.19 42.96Q490.04 43.88 487.62 43.88L487.62 43.88L486.41 43.88Q483.71 43.88 481.41 42.79Q479.10 41.69 477.46 39.74L477.46 39.74L477.46 59.12L472.66 59.12L472.66 3.10L474.26 3.10L476.88 7.16Q478.52 4.94 481 3.63Q483.48 2.32 486.41 2.32L486.41 2.32L487.62 2.32Q490.04 2.32 492.19 3.24Q494.34 4.15 495.94 5.76Q497.54 7.36 498.46 9.51Q499.38 11.65 499.38 14.08L499.38 14.08L499.38 32.12 zM494.57 32.40L494.57 13.80Q494.57 12.36 494.02 11.09Q493.48 9.82 492.54 8.88Q491.60 7.94 490.33 7.40Q489.06 6.85 487.62 6.85L487.62 6.85L484.41 6.85Q482.97 6.85 481.70 7.40Q480.43 7.94 479.49 8.88Q478.55 9.82 478.01 11.09Q477.46 12.36 477.46 13.80L477.46 13.80L477.46 32.40Q477.46 33.84 478.01 35.11Q478.55 36.38 479.49 37.32Q480.43 38.26 481.70 38.80Q482.97 39.35 484.41 39.35L484.41 39.35L487.62 39.35Q489.06 39.35 490.33 38.80Q491.60 38.26 492.54 37.32Q493.48 36.38 494.02 35.11Q494.57 33.84 494.57 32.40L494.57 32.40" style="fill: rgb(213, 50, 50);" transform="translate(-301.780,-21.551)"></path></g><g class="path" style="opacity: 1; animation: 0.4s linear -0.033s infinite normal forwards running animate-kgja8pvnhg; transform-box: view-box; transform-origin: 220.56px 1.55px;"><path d="M535.70 43.10L534.10 43.10L531.45 39.12Q529.80 41.26 527.34 42.57Q524.88 43.88 521.95 43.88L521.95 43.88L520.74 43.88Q518.32 43.88 516.17 42.96Q514.02 42.05 512.42 40.44Q510.82 38.84 509.90 36.69Q508.98 34.55 508.98 32.12L508.98 32.12L508.98 31.73Q508.98 29.31 509.90 27.16Q510.82 25.01 512.42 23.41Q514.02 21.81 516.17 20.89Q518.32 19.97 520.74 19.97L520.74 19.97L530.90 19.97L530.90 13.80Q530.90 12.36 530.35 11.09Q529.80 9.82 528.87 8.88Q527.93 7.94 526.66 7.40Q525.39 6.85 523.95 6.85L523.95 6.85L521.13 6.85Q519.69 6.85 518.42 7.40Q517.15 7.94 516.21 8.88Q515.27 9.82 514.73 11.09Q514.18 12.36 514.18 13.80L514.18 13.80L514.18 15.25L509.38 14.47L509.38 14.08Q509.38 11.65 510.29 9.51Q511.21 7.36 512.81 5.76Q514.41 4.15 516.56 3.24Q518.71 2.32 521.13 2.32L521.13 2.32L523.95 2.32Q526.37 2.32 528.52 3.24Q530.66 4.15 532.27 5.76Q533.87 7.36 534.79 9.51Q535.70 11.65 535.70 14.08L535.70 14.08L535.70 43.10 zM530.90 32.40L530.90 23.72L520.74 23.72Q519.30 23.72 518.03 24.27Q516.76 24.82 515.82 25.78Q514.88 26.73 514.34 28Q513.79 29.27 513.79 30.72L513.79 30.72L513.79 32.40Q513.79 33.84 514.34 35.11Q514.88 36.38 515.82 37.32Q516.76 38.26 518.03 38.80Q519.30 39.35 520.74 39.35L520.74 39.35L523.95 39.35Q525.39 39.35 526.66 38.80Q527.93 38.26 528.87 37.32Q529.80 36.38 530.35 35.11Q530.90 33.84 530.90 32.40L530.90 32.40" style="fill: rgb(213, 50, 50);" transform="translate(-301.780,-21.551)"></path></g><g class="path" style="opacity: 1; animation: 0.4s linear -0.0165s infinite normal forwards running animate-kgja8pvnhg; transform-box: view-box; transform-origin: 256.89px 1.55px;"><path d="M572.03 32.12L572.03 32.12Q572.03 34.55 571.11 36.69Q570.20 38.84 568.59 40.44Q566.99 42.05 564.84 42.96Q562.70 43.88 560.27 43.88L560.27 43.88L557.07 43.88Q554.65 43.88 552.50 42.96Q550.35 42.05 548.75 40.44Q547.15 38.84 546.23 36.69Q545.31 34.55 545.31 32.12L545.31 32.12L545.31 14.08Q545.31 11.65 546.23 9.51Q547.15 7.36 548.75 5.76Q550.35 4.15 552.50 3.24Q554.65 2.32 557.07 2.32L557.07 2.32L560.27 2.32Q562.70 2.32 564.84 3.24Q566.99 4.15 568.59 5.76Q570.20 7.36 571.11 9.51Q572.03 11.65 572.03 14.08L572.03 14.08L572.03 15.68L567.23 16.46L567.23 13.80Q567.23 12.36 566.68 11.09Q566.13 9.82 565.20 8.88Q564.26 7.94 562.99 7.40Q561.72 6.85 560.27 6.85L560.27 6.85L557.07 6.85Q555.63 6.85 554.36 7.40Q553.09 7.94 552.15 8.88Q551.21 9.82 550.66 11.09Q550.12 12.36 550.12 13.80L550.12 13.80L550.12 32.40Q550.12 33.84 550.66 35.11Q551.21 36.38 552.15 37.32Q553.09 38.26 554.36 38.80Q555.63 39.35 557.07 39.35L557.07 39.35L560.27 39.35Q561.72 39.35 562.99 38.80Q564.26 38.26 565.20 37.32Q566.13 36.38 566.68 35.11Q567.23 33.84 567.23 32.40L567.23 32.40L567.23 29.74L572.03 30.52L572.03 32.12" style="fill: rgb(213, 50, 50);" transform="translate(-301.780,-21.551)"></path></g><g class="path" style="opacity: 1; animation: 0.4s linear 0s infinite normal forwards running animate-kgja8pvnhg; transform-box: view-box; transform-origin: 293.22px 1.55px;"><path d="M608.36 32.12L608.36 32.12Q608.36 34.55 607.44 36.69Q606.52 38.84 604.92 40.44Q603.32 42.05 601.17 42.96Q599.02 43.88 596.60 43.88L596.60 43.88L593.40 43.88Q590.98 43.88 588.83 42.96Q586.68 42.05 585.08 40.44Q583.48 38.84 582.56 36.69Q581.64 34.55 581.64 32.12L581.64 32.12L581.64 14.08Q581.64 11.65 582.56 9.51Q583.48 7.36 585.08 5.76Q586.68 4.15 588.83 3.24Q590.98 2.32 593.40 2.32L593.40 2.32L596.60 2.32Q599.02 2.32 601.17 3.24Q603.32 4.15 604.92 5.76Q606.52 7.36 607.44 9.51Q608.36 11.65 608.36 14.08L608.36 14.08L608.36 23.49L586.45 23.49L586.45 32.40Q586.45 33.84 586.99 35.11Q587.54 36.38 588.48 37.32Q589.41 38.26 590.68 38.80Q591.95 39.35 593.40 39.35L593.40 39.35L596.60 39.35Q598.05 39.35 599.32 38.80Q600.59 38.26 601.52 37.32Q602.46 36.38 603.01 35.11Q603.55 33.84 603.55 32.40L603.55 32.40L603.55 29.74L608.36 30.52L608.36 32.12 zM603.55 19.74L603.55 13.80Q603.55 12.36 603.01 11.09Q602.46 9.82 601.52 8.88Q600.59 7.94 599.32 7.40Q598.05 6.85 596.60 6.85L596.60 6.85L593.40 6.85Q591.95 6.85 590.68 7.40Q589.41 7.94 588.48 8.88Q587.54 9.82 586.99 11.09Q586.45 12.36 586.45 13.80L586.45 13.80L586.45 19.74L603.55 19.74" style="fill: rgb(213, 50, 50);" transform="translate(-301.780,-21.551)"></path></g></g><text dy="0.35em" fill="#f8f1f1" font-family="Abel" font-size="24">ShweeShaungSpace</text>
</g>
</g><style type="text/css">@keyframes animate-kgja8pvnhg { 0.00% {animation-timing-function: cubic-bezier(0.33,0.00,0.67,0.00);transform: translate(0.00px,0.00px) rotate(0.00deg) scale(1.00, 1.00) skew(0deg, 0.00deg) ;opacity: 1.00;}44.00% {animation-timing-function: cubic-bezier(0.52,0.14,0.69,0.58);transform: translate(0.00px,0.00px) rotate(0.00deg) ;opacity: 1.00;}50.00% {transform: translate(0.00px,0.00px) rotate(0.00deg) ;opacity: 0.85;}52.00% {transform: translate(0.00px,0.00px) rotate(0.00deg) ;opacity: 0.78;}54.00% {transform: translate(0.00px,0.00px) rotate(0.00deg) ;opacity: 0.71;}56.00% {transform: translate(0.00px,0.00px) rotate(0.00deg) ;opacity: 0.64;}58.00% {transform: translate(0.00px,0.00px) rotate(0.00deg) ;opacity: 0.57;}60.00% {transform: translate(0.00px,0.00px) rotate(0.00deg) ;opacity: 0.50;}64.00% {transform: translate(0.00px,0.00px) rotate(0.00deg) ;opacity: 0.36;}66.00% {transform: translate(0.00px,0.00px) rotate(0.00deg) ;opacity: 0.29;}68.00% {transform: translate(0.00px,0.00px) rotate(0.00deg) ;opacity: 0.22;}70.00% {transform: translate(0.00px,0.00px) rotate(0.00deg) ;opacity: 0.15;}72.00% {transform: translate(0.00px,0.00px) rotate(0.00deg) ;opacity: 0.08;}74.00% {transform: translate(0.00px,0.00px) rotate(0.00deg) ;opacity: 0.01;}76.00% {transform: translate(0.00px,0.00px) rotate(0.00deg) ;opacity: 0.17;}78.00% {transform: translate(0.00px,0.00px) rotate(0.00deg) ;opacity: 0.24;}80.00% {transform: translate(0.00px,0.00px) rotate(0.00deg) ;opacity: 0.31;}86.00% {transform: translate(0.00px,0.00px) rotate(0.00deg) ;opacity: 0.51;}88.00% {transform: translate(0.00px,0.00px) rotate(0.00deg) ;opacity: 0.58;}90.00% {transform: translate(0.00px,0.00px) rotate(0.00deg) ;opacity: 0.65;}92.00% {transform: translate(0.00px,0.00px) rotate(0.00deg) ;opacity: 0.72;}94.00% {transform: translate(0.00px,0.00px) rotate(0.00deg) ;opacity: 0.79;}96.00% {transform: translate(0.00px,0.00px) rotate(0.00deg) ;opacity: 0.86;}100.00% {transform: translate(0.00px,0.00px) rotate(0.00deg) ;opacity: 1.00;} }</style><!-- [ldio] generated by https://loading.io --></svg>